<svg width="15" height="16" viewBox="0 0 15 16" fill="none" xmlns="http://www.w3.org/2000/svg">
<rect width="15" height="16" fill="#D8D6D3"/>
<g id="Product Page" clip-path="url(#clip0_7208_57317)">
<g id="Ecommerce Product Header Section">
<g id="Product Header / 3 /">
<rect width="1440" height="1189" transform="translate(-762 -593)" fill="#EEEEEE"/>
<g id="Content">
<g id="Column">
<g id="Product Description">
<g id="Form">
<g id="Group 2">
<g id="Modo_de_isolamento" clip-path="url(#clip1_7208_57317)">
<path id="Vector" d="M7.41007 0.462646C3.32414 0.462646 0 3.78679 0 7.87272C0 11.9586 3.32414 15.2828 7.41007 15.2828C11.496 15.2828 14.8201 11.9586 14.8201 7.87272C14.8201 3.78679 11.496 0.462646 7.41007 0.462646ZM7.41007 13.7938C4.14364 13.7938 1.48894 11.1391 1.48894 7.87272C1.48894 4.60628 4.14364 1.94004 7.41007 1.94004C10.6765 1.94004 13.3312 4.59474 13.3312 7.86117C13.3312 11.1276 10.6765 13.7823 7.41007 13.7823V13.7938Z" fill="#A08950"/>
<path id="Vector_2" d="M5.92142 9.05003L4.21318 7.35333L3.16284 8.40367L5.90988 11.1507L10.873 6.18757L9.82267 5.13724L5.89833 9.06157L5.92142 9.05003Z" fill="#A08950"/>
</g>
</g>
</g>
</g>
</g>
</g>
</g>
</g>
</g>
<defs>
<clipPath id="clip0_7208_57317">
<rect width="1440" height="10493" fill="white" transform="translate(-762 -678)"/>
</clipPath>
<clipPath id="clip1_7208_57317">
<rect width="14.8201" height="14.8201" fill="white" transform="translate(0 0.462646)"/>
</clipPath>
</defs>
</svg>
